D:\school\WTK\thesis\model\3dpredictsim\Results\batch_windlass\Pog_s1_tmt_bCst_d00_k500_WL30_ig24_pas_GRF.mot
nRows=15
nColumns=19

name D:\school\WTK\thesis\model\3dpredictsim\Results\batch_windlass\Pog_s1_tmt_bCst_d00_k500_WL30_ig24_pas_GRF.mot
datacolumns 19
datarows 15
range 0.5637434926 0.7215916705
endheader
time 	ground_force_vx	ground_force_vy	ground_force_vz	ground_force_px	ground_force_py	ground_force_pz	1_ground_force_vx	1_ground_force_vy	1_ground_force_vz	1_ground_force_px	1_ground_force_py	1_ground_force_pz	ground_torque_x	ground_torque_y	ground_torque_z	1_ground_torque_x	1_ground_torque_y	1_ground_torque_z
        0.5637434926	       86.4418107946	      436.7459360809	        3.2950544475	        0.3795000308	        0.0000000000	        0.0316951120	      -82.2326398437	       66.6792471139	      -28.5717536915	        0.8702290892	        0.0000000000	       -0.0393520757	        0.0000000000	        0.0000000000	        0.0000000000	        0.0000000000	        0.0000000000	        0.0000000000	
        0.5750183624	       61.6214123029	      340.3008259633	        9.8148320851	        0.3857174138	        0.0000000000	        0.0293509494	     -132.5133421388	      146.4145100273	      -69.3359047441	        0.8780480006	        0.0000000000	       -0.0370975175	        0.0000000000	        0.0000000000	        0.0000000000	        0.0000000000	        0.0000000000	        0.0000000000	
        0.5862932323	       33.5436999570	      238.8072146940	       11.9910288558	        0.3959483137	        0.0000000000	        0.0246509907	      -63.6525400760	      298.7155105806	      -30.4254476051	        0.8842518503	        0.0000000000	       -0.0349133241	        0.0000000000	        0.0000000000	        0.0000000000	        0.0000000000	        0.0000000000	        0.0000000000	
        0.5975681021	       13.4590663704	      162.7745299214	       10.3334374937	        0.4090247379	        0.0000000000	        0.0173561659	      -50.5929560569	      485.3740589240	       -1.5784612805	        0.8892932098	        0.0000000000	       -0.0353233888	        0.0000000000	        0.0000000000	        0.0000000000	        0.0000000000	        0.0000000000	        0.0000000000	
        0.6088429720	        2.6109226842	      130.4183328918	        8.7279578081	        0.4086951259	        0.0000000000	        0.0173752190	      -78.7942416307	      695.9171701762	        9.8009988005	        0.8977716083	        0.0000000000	       -0.0377920233	        0.0000000000	        0.0000000000	        0.0000000000	        0.0000000000	        0.0000000000	        0.0000000000	
        0.6201178418	       -1.5828273038	       85.4385980862	        7.9442450677	        0.4090098460	        0.0000000000	        0.0174524993	     -102.8989320000	      817.2509050808	       14.9309655348	        0.9040135340	        0.0000000000	       -0.0395700089	        0.0000000000	        0.0000000000	        0.0000000000	        0.0000000000	        0.0000000000	        0.0000000000	
        0.6313927117	       -8.5251850952	       35.6292914998	        5.0974242922	        0.4084031681	        0.0000000000	        0.0175437150	     -111.9396463675	      858.0411972164	       16.6378853295	        0.9089305312	        0.0000000000	       -0.0408100078	        0.0000000000	        0.0000000000	        0.0000000000	        0.0000000000	        0.0000000000	        0.0000000000	
        0.6426675815	        0.0952464365	       -0.0962584193	       -0.0008060351	        0.0000000000	        0.0000000000	        0.0000000000	     -117.1182462233	      866.1047557923	       16.2807377938	        0.9131254695	        0.0000000000	       -0.0415996826	        0.0000000000	        0.0000000000	        0.0000000000	        0.0000000000	        0.0000000000	        0.0000000000	
        0.6539424514	        0.0000436081	       -0.0000364533	        0.0000028769	        0.0000000000	        0.0000000000	        0.0000000000	     -109.0473156096	      857.4262759608	       15.6547646978	        0.9169422374	        0.0000000000	       -0.0417953037	        0.0000000000	        0.0000000000	        0.0000000000	        0.0000000000	        0.0000000000	        0.0000000000	
        0.6652173212	        0.0000125487	       -0.0000091905	        0.0000009710	        0.0000000000	        0.0000000000	        0.0000000000	      -95.7339190294	      824.0584156692	       16.7115238773	        0.9212382265	        0.0000000000	       -0.0418106933	        0.0000000000	        0.0000000000	        0.0000000000	        0.0000000000	        0.0000000000	        0.0000000000	
        0.6764921911	        0.0000574741	       -0.0000378584	        0.0000047962	        0.0000000000	        0.0000000000	        0.0000000000	      -82.9504389117	      784.2639119195	       16.5325592240	        0.9259146689	        0.0000000000	       -0.0416735198	        0.0000000000	        0.0000000000	        0.0000000000	        0.0000000000	        0.0000000000	        0.0000000000	
        0.6877670609	        0.0020839949	       -0.0012720455	        0.0001748881	        0.0000000000	        0.0000000000	        0.0000000000	      -71.1918662672	      740.2809805970	       16.1702780089	        0.9303410019	        0.0000000000	       -0.0415410813	        0.0000000000	        0.0000000000	        0.0000000000	        0.0000000000	        0.0000000000	        0.0000000000	
        0.6990419308	       -0.0148195689	        0.0084894831	       -0.0012335608	        0.0000000000	        0.0000000000	        0.0000000000	      -60.0518475402	      699.1917025784	       16.2239020993	        0.9343611666	        0.0000000000	       -0.0414778012	        0.0000000000	        0.0000000000	        0.0000000000	        0.0000000000	        0.0000000000	        0.0000000000	
        0.7103168006	       -0.0129065731	        0.0069682333	       -0.0010832661	        0.0000000000	        0.0000000000	        0.0000000000	      -49.9371370191	      665.0275298889	       16.6812351254	        0.9382528803	        0.0000000000	       -0.0414799427	        0.0000000000	        0.0000000000	        0.0000000000	        0.0000000000	        0.0000000000	        0.0000000000	
        0.7215916705	       -0.0078288267	        0.0039944510	       -0.0006753257	        0.0000000000	        0.0000000000	        0.0000000000	      -41.2360024547	      638.1377651481	       17.3394076427	        0.9422198973	        0.0000000000	       -0.0415251193	        0.0000000000	        0.0000000000	        0.0000000000	        0.0000000000	        0.0000000000	        0.0000000000	
